<?xml version="1.0" encoding="utf-8"?>
<!-- Generator: Adobe Illustrator 13.0.0, SVG Export Plug-In . SVG Version: 6.00 Build 14948)  -->
<!DOCTYPE svg PUBLIC "-//W3C//DTD SVG 1.1//EN" "http://www.w3.org/Graphics/SVG/1.1/DTD/svg11.dtd">
<svg version="1.1" id="Layer_1" xmlns="http://www.w3.org/2000/svg" xmlns:xlink="http://www.w3.org/1999/xlink" x="0px" y="0px"
	 width="300px" height="205px" viewBox="0 0 300 205" enable-background="new 0 0 300 205" xml:space="preserve">
<path fill="#FFFFFF" d="M149.829,1.53C68.373,1.53,2.333,46.866,2.333,102.785c0,55.918,66.039,101.256,147.495,101.256
	c81.462,0,147.505-45.338,147.505-101.256C297.334,46.866,231.291,1.53,149.829,1.53"/>
<path fill="#00539B" d="M149.829,6.41C71.505,6.41,8.012,49.561,8.012,102.785s63.493,96.375,141.816,96.375
	c78.333,0,141.822-43.15,141.822-96.375S228.162,6.41,149.829,6.41"/>
<path fill="#FFFFFF" d="M149.829,25.998c-66.636,0-120.66,34.378-120.66,76.788c0,42.408,54.024,76.787,120.66,76.787
	c66.642,0,120.664-34.379,120.664-76.787C270.492,60.375,216.471,25.998,149.829,25.998"/>
<path fill="#00539B" d="M251.24,107.359c0,3.832,3.115,6.953,6.949,6.953s6.955-3.121,6.955-6.953c0-3.834-3.121-6.949-6.955-6.949
	S251.24,103.525,251.24,107.359 M252.947,107.359c0-2.891,2.352-5.246,5.242-5.246c2.895,0,5.246,2.355,5.246,5.246
	s-2.352,5.244-5.246,5.244C255.299,112.604,252.947,110.25,252.947,107.359z"/>
<path fill="#00539B" d="M258.211,103.73c1.467,0,2.307,0.768,2.307,2.1c0,1.002-0.561,1.75-1.424,1.91l-0.238,0.041
	c0,0,1.885,2.539,2.189,2.945c-0.432,0-1.77,0-1.906,0c-0.084-0.139-1.99-3.188-1.99-3.188s0,2.916,0,3.188
	c-0.232,0-1.305,0-1.537,0c0-0.283,0-6.711,0-6.996C255.883,103.73,258.211,103.73,258.211,103.73 M257.148,104.879v2.129h0.336
	c0.35,0,1.422,0,1.422-1.064s-1.072-1.064-1.422-1.064H257.148z"/>
<path fill="#EE3224" d="M198.801,137.303h-22.518l11.627-32.322l-24.355-72.272c-4.523-0.335-9.102-0.506-13.726-0.506
	c-4.592,0-9.14,0.167-13.627,0.498l-23.261,68.008h3.716l-0.251,2.945c-1.037,12.295-6.144,22.07-14.096,28.129l-10.828,31.664
	c7.533,2.785,15.527,5.014,23.857,6.645l11.783-35.48h44.508l10.742,35.854c8.848-1.627,17.33-3.918,25.301-6.834 M133.958,112.969
	l15.502-48.466h0.337l15.001,48.466H133.958z"/>
<path fill="#EE3224" d="M227.289,53.632h-18.027l-29.117,80.956h18.365c0,0,5.582-16.74,5.902-17.699h27.082
	c0.311,0.973,5.693,17.699,5.693,17.699h18.787 M209.229,102.393c0.574-1.702,7.84-23.3,8.877-26.378
	c1.006,3.086,8.031,24.689,8.584,26.378H209.229z"/>
<path fill="#EE3224" d="M97.181,81.274c-1.054-7.903-8.162-13.915-16.312-13.915c-14.74,0-20.278,13.358-20.278,27.267
	c0,13.25,5.538,26.603,20.278,26.603c10.034,0,15.684-7.342,16.94-17.807h15.893c-1.676,19.813-14.535,32.502-32.833,32.502
	c-23.103,0-36.697-18.365-36.697-41.298c0-23.592,13.595-41.965,36.697-41.965c16.413,0,30.218,10.246,32.201,28.613"/>
</svg>
